<svg id="Layer_1" data-name="Layer 1" xmlns="http://www.w3.org/2000/svg" viewBox="0 0 1040.72 605.92"><defs><style>.cls-1{fill:#fff;}</style></defs><polygon class="cls-1" points="549.33 402.36 536.49 415.21 536.49 530.9 954.41 530.9 967.26 518.06 549.33 518.06 549.33 402.36"/><path class="cls-1" d="M282.41,204.45H257.88l-48.51-67.76v67.76H180.12V88.57h28.31l44.73,63.79V88.57h29.25Z"/><polygon class="cls-1" points="879.12 308.64 902.9 308.64 891.01 275.99 879.12 308.64"/><path class="cls-1" d="M917.23,228.47h-47l-23.28,20.39L819.14,321v-81.1s-2.41-3.83-18.56-9.94-39.87-1.89-39.87-1.89V146.66l11.45-.4,22.83-20V76.9H669.76l-11,9.6S643,75,614.05,75s-44.56,17.33-44.56,17.33l-16.37,13.8-.06-29.25H390.27L362.54,99.76,354.35,76.9H243.84L227.4,91.3,216.83,76.9h-46L158,88.1l-.12-11.2H104.18L80.9,97.29v139.2l45.24-.1L68.27,388.06h55.12L149.48,366h7.81l8.3,22.06h109l36.88-31.65v31.65h53.6l12.44-11.19v11.19H484.19l10.18-9.19v9.19H547.7l11-9.59,5.67,9.59H675.27l25.18-21.37c3.35,4.1,22.25,23.26,53.34,23.26s45.72-16.55,45.72-16.55l-5.64,14.66H849l26.09-22.46h7.81l8.3,22.46H947l23.28-20.39ZM180.12,88.57h28.31l44.73,63.79V88.57h29.25V204.45H257.88l-48.51-67.76v67.76H180.12ZM113.5,204.45h0V88.57h30.39V204.45H113.5ZM194.66,356l-8.3-22.46H144.27L136.15,356h-30l44.17-115.88h30.95L225.42,356Zm179.28,0H344.12V289.58L314.49,331.1h-.76l-29.81-41.52V356H254.28V240.13h28.13l31.7,47.18L346,240.13h27.93ZM354.49,204.45,311.27,88.57h32.46L370,163.49,396.2,88.57h31.14L384.12,204.45ZM493,266.18H440v18.11h48.51v25.48H440v20h53V356H410.16V240.13H493Zm-36.81-61.73h0V88.57h82.85v26H486v18.12h48.51v25.48H486v20h53v26.24H456.21ZM591.71,356,567.55,317.7H557V356H527V240.13h52.09c24.91,0,42.08,14.16,42.08,39.45,0,17.55-8.87,29.63-23,34.91L625.31,356ZM651,188a30.94,30.94,0,0,1-6.16,7.24,37.8,37.8,0,0,1-8.23,5.37c-1.21.6-2.47,1.14-3.78,1.64a56.42,56.42,0,0,1-8.27,2.44c-1.45.31-2.93.58-4.44.8a82.08,82.08,0,0,1-11.8.82c-15.47,0-29.44-4.34-37.93-9.43V169a70.63,70.63,0,0,0,8.19,4.75c1.47.72,3,1.41,4.53,2.05.78.32,1.56.63,2.35.93A64,64,0,0,0,607.56,181c7.82,0,14.77-1.37,17.1-5.73a7.4,7.4,0,0,0,.83-3.51,9.67,9.67,0,0,0-.38-2.82,6.7,6.7,0,0,0-.28-.79,7.91,7.91,0,0,0-3.32-3.6,31.83,31.83,0,0,0-5.84-2.61l-17.55-5.09q-3.64-1.06-6.88-2.32c-15.08-5.9-23.32-15.38-23.32-32.22h0a37.52,37.52,0,0,1,.5-6.2,31.74,31.74,0,0,1,4.75-12.28,32.82,32.82,0,0,1,2.19-2.93c.39-.46.8-.92,1.21-1.36A33.77,33.77,0,0,1,579.24,97a39.31,39.31,0,0,1,9.69-6c1.2-.53,2.45-1,3.72-1.44a59.52,59.52,0,0,1,19.06-2.95A82.6,82.6,0,0,1,632.19,89a65.43,65.43,0,0,1,8.39,2.73,70,70,0,0,1,7.55,3.59v27.93c-1.29-.89-2.61-1.75-3.94-2.55a59.2,59.2,0,0,0-31.16-9q-1.63,0-3.15.12a25.76,25.76,0,0,0-5.5,1,14.85,14.85,0,0,0-2.25.88,10.42,10.42,0,0,0-1.84,1.14,7.21,7.21,0,0,0-1.38,1.44,6.32,6.32,0,0,0-1.17,3.76,7.25,7.25,0,0,0,3.21,6.41q.34.26.72.48a14.13,14.13,0,0,0,1.65.86,28.94,28.94,0,0,0,2.95,1.14l1.1.36,17.55,5.29a72.64,72.64,0,0,1,10.69,4.2c.53.26,1,.53,1.55.8,1,.55,2,1.11,2.9,1.69a38.31,38.31,0,0,1,3.88,2.76c.8.64,1.56,1.31,2.27,2,6.43,6.17,9.47,14.06,9.47,24a38.55,38.55,0,0,1-1,8.76,31.38,31.38,0,0,1-2.78,7.49C651.64,186.92,651.33,187.48,651,188Zm33.56,168H654.17V240.13h30.38Zm-5.47-241.4v-26H781v26H745.13v89.84H714.75V114.61Zm126.06,161a43.17,43.17,0,0,0-27-9.43c-19.25,0-31.52,11.89-31.52,31.89,0,19.82,12.27,31.71,31.52,31.71a42.91,42.91,0,0,0,27-9.25V350c-7.36,4.91-17.17,7.93-29.44,7.93-35.29,0-59.45-23.78-59.45-59.83s24.16-59.83,59.45-59.83c12.27,0,22.08,3,29.44,7.93ZM920.26,356,912,333.55H869.87L861.75,356h-30l44.16-115.88h31L951,356Z"/><path class="cls-1" d="M575.86,265.61H557v27.93h18.88c10.76,0,15.66-5.47,15.66-14S586.62,265.61,575.86,265.61Z"/><polygon class="cls-1" points="153.51 308.64 177.3 308.64 165.41 275.99 153.51 308.64"/><path class="cls-1" d="M840.28,193.46H821.77V122.88h18.51Z"/><path class="cls-1" d="M913.16,193.46H898.22l-29.55-41.27v41.27H850.86V122.88H868.1l27.24,38.85V122.88h17.82Z"/><path class="cls-1" d="M549.33,402.36v115.7H967.26V402.36ZM622,491.15l-4.9-13.25H592.3l-4.79,13.25h-17.7l26.05-68.36h18.26l26,68.36Zm73.37-47.43a25.48,25.48,0,0,0-15.92-5.56c-11.35,0-18.59,7-18.59,18.81s7.24,18.71,18.59,18.71a25.31,25.31,0,0,0,15.92-5.46v17.37c-4.34,2.89-10.13,4.68-17.37,4.68-20.81,0-35.07-14-35.07-35.3s14.26-35.29,35.07-35.29c7.24,0,13,1.78,17.37,4.68Zm69.48-5.56H743.71v53H725.79v-53h-21V422.79h60.12Zm28.61,53H775.56V422.79h17.92Zm44.2,1.12c-19.71,0-33.29-14.92-33.29-35.3s13.58-35.29,33.29-35.29,33.51,14.81,33.51,35.29S857.5,492.27,837.68,492.27Zm104.66-1.12H927.86l-28.61-40v40H882V422.79h16.7l26.39,37.63V422.79h17.26Z"/><path class="cls-1" d="M837.68,437.38c-9.24,0-15.25,7.79-15.25,19.59s6,19.6,15.25,19.6,15.48-7.8,15.48-19.6S846.92,437.38,837.68,437.38Z"/><polygon class="cls-1" points="597.75 463.21 611.78 463.21 604.76 443.95 597.75 463.21"/></svg>