<svg width="186" height="81" viewBox="0 0 186 81" fill="none" xmlns="http://www.w3.org/2000/svg">
<path d="M31.4854 53.3228H35.4846L33.485 47.8252L31.4854 53.3228Z" fill="white"/>
<path d="M102.516 46.0781H99.3379V50.7809H102.512C104.321 50.7809 105.146 49.8609 105.146 48.4304C105.146 46.9999 104.325 46.0781 102.516 46.0781Z" fill="white"/>
<path d="M153.518 53.3228H157.517L155.517 47.8252L153.518 53.3228Z" fill="white"/>
<path d="M159.928 39.8245H152.025L148.109 43.2568L143.436 55.4092V41.7545C143.436 41.7545 143.03 41.1106 140.311 40.0802C137.592 39.0499 133.603 39.7619 133.603 39.7619V26.0548L135.533 25.9867L139.372 22.6225V14.3062H118.31L116.467 15.9216C116.467 15.9216 113.802 13.9897 108.941 13.9897C104.079 13.9897 101.448 16.9078 101.448 16.9078L98.6907 19.2325L98.6806 14.3071H71.3026L66.639 18.1552L65.2605 14.3071H46.6759L43.9117 16.7303L42.1345 14.3071H34.3924L32.2421 16.1912L32.2219 14.3062H23.1887L19.2731 17.7394V41.1759L26.8819 41.1584L17.1494 66.696H26.4197L30.8076 62.9822H32.1199L33.5167 66.696H51.855L58.0579 61.3677V66.696H67.0718L69.1651 64.811V66.696H87.0983L88.8102 65.1477V66.696H97.78L99.6179 65.0806L100.577 66.696H119.232L123.466 63.0981C124.03 63.789 127.208 67.0134 132.438 67.0134C137.668 67.0134 140.127 64.2278 140.127 64.2278L139.182 66.696H148.451L152.839 62.9141H154.152L155.548 66.696H164.934L168.85 63.2637L159.928 39.8245ZM35.9629 16.274H40.7239L48.2445 27.0097V16.2703H53.1645V35.7804H49.0385L40.8811 24.3731V35.7804H35.9601L35.9629 16.274ZM24.7564 35.7804V16.2703H29.8657V35.7804H24.7564ZM38.4054 61.2978L37.0086 57.5168H29.9328L28.5673 61.2978H23.5186L30.9464 41.7886H36.1513L43.5791 61.2978H38.4054ZM68.5568 61.2978H63.5421V50.1131L58.5587 57.1047H58.4319L53.4163 50.1131V61.2978H48.4329V41.7886H53.1627L58.4926 49.7323L63.8564 41.7886H68.5531L68.5568 61.2978ZM65.2863 35.7804L58.0175 16.2703H63.4769L67.8878 28.8845L72.2987 16.2703H77.5367L70.2679 35.7804H65.2863ZM88.586 46.173H79.664V49.2235H87.8215V53.5132H79.664V56.8811H88.586V61.2969H74.6484V41.7886H88.586V46.173ZM82.3951 35.7777V16.2703H96.329V20.6547H87.407V23.7053H95.5644V27.9949H87.407V31.3629H96.3263V35.7786L82.3951 35.7777ZM105.185 61.295L101.122 54.8453H99.3376V61.295H94.2908V41.7886H103.051C107.241 41.7886 110.127 44.1712 110.127 48.4296C110.127 51.3845 108.635 53.4176 106.254 54.3081L110.825 61.2996L105.185 61.295ZM107.976 36.0978C105.373 36.0978 103.023 35.3674 101.595 34.5091V29.8063C103.278 30.9498 105.658 31.8403 107.844 31.8403C109.463 31.8403 110.859 31.4907 110.859 30.2828C110.859 29.3298 110.256 29.0115 109.205 28.6269L106.254 27.7686C102.984 26.8156 101.175 25.1928 101.175 21.9537C101.175 18.078 104.444 15.9483 108.538 15.9483C111.173 15.9483 113.041 16.5205 114.665 17.4101V22.1128C112.919 20.9059 110.982 20.1745 108.76 20.1745C107.3 20.1745 106.187 20.5876 106.187 21.5728C106.187 22.4624 106.79 22.812 107.806 23.1294L110.757 24.0199C114.313 25.1321 115.931 27.006 115.931 29.9931C115.94 34.222 112.354 36.0978 107.976 36.0978ZM120.798 61.2978H115.686V41.7886H120.796L120.798 61.2978ZM119.879 20.6547V16.2703H137.014V20.6547H130.983V35.7804H125.873V20.6547H119.879ZM141.08 47.7617C139.684 46.6817 138.161 46.173 136.542 46.173C133.304 46.173 131.241 48.1748 131.241 51.5427C131.241 54.8793 133.304 56.8784 136.542 56.8784C138.188 56.8924 139.789 56.3432 141.08 55.3218V60.2785C139.843 61.1064 138.192 61.6133 136.129 61.6133C130.194 61.6133 126.131 57.6097 126.131 51.5399C126.131 45.4702 130.194 41.4675 136.129 41.4675C138.192 41.4675 139.843 41.9762 141.08 42.8023V47.7617ZM160.441 61.2978L159.044 57.5168H151.968L150.603 61.2978H145.551L152.978 41.7886H158.184L165.611 61.2978H160.441Z" fill="white"/>
<path d="M145.579 25.6105C144.501 25.6105 143.58 24.8681 143.58 23.7227C143.58 22.5535 144.499 21.812 145.579 21.812C146.659 21.812 147.577 22.5535 147.577 23.7227C147.577 24.8681 146.656 25.6105 145.579 25.6105ZM147.325 36.578H143.805V26.4642H147.329L147.325 36.578Z" fill="white"/>
<path d="M149.236 26.464H152.76V27.3407C153.322 26.7115 154.31 26.2368 155.477 26.2368C157.722 26.2368 159.047 27.6977 159.047 29.9451V36.5751H155.545V30.8016C155.545 29.9736 155.118 29.3637 154.22 29.3637C153.524 29.3637 152.941 29.7676 152.76 30.4676V36.5807H149.236V26.464Z" fill="white"/>
</svg>
